<svg xmlns="http://www.w3.org/2000/svg" width="1200" height="800" viewBox="-58.66761 -16.00195 508.45262 96.0117"><path d="M374.7122 35a16.53 16.53 0 01-4.6-.6l4.5-10 4.5 10a14.63 14.63 0 01-4.4.6m16 7.6l-10.5-22.9c-1.2-2.5-2.8-3.6-5.2-3.6h-.4c-2.5 0-4.1 1.1-5.3 3.6l-10.5 22.9c-1 2.3-.3 4.3 1.8 5.1a3.53 3.53 0 004.8-1.9l2.4-5a24.11 24.11 0 007.2 1.1 20.38 20.38 0 006.9-1.1l2.3 5a3.53 3.53 0 004.8 1.9 3.79 3.79 0 001.7-5.1m-38.9-1.9h-16.1l15.9-14.3c2.3-2 3.2-3.7 3.2-5.8v-.3c0-2.6-1.6-4.2-4.5-4.2h-20.31a3.62 3.62 0 00-3.8 3.8 3.47 3.47 0 003.8 3.6h14.9l-15.4 13.9c-3 2.7-3.7 4.3-3.7 6.3v.4c0 2.6 1.7 4.2 4.4 4.2h21.5a3.6 3.6 0 003.8-3.7 3.43 3.43 0 00-3.7-3.9m-33.7 0h-16.1l15.9-14.3c2.3-2 3.2-3.7 3.2-5.8v-.3c0-2.6-1.6-4.2-4.5-4.2h-20.3a3.62 3.62 0 00-3.8 3.8 3.47 3.47 0 003.8 3.6h14.9l-15.4 13.9c-3 2.7-3.7 4.3-3.7 6.3v.4c0 2.6 1.7 4.2 4.4 4.2h21.5a3.6 3.6 0 003.8-3.7c.2-2.4-1.2-3.9-3.7-3.9m-36.3-25a3.75 3.75 0 00-4 3.9v24.8a3.81 3.81 0 004 3.9 3.75 3.75 0 004-3.9V19.6a3.92 3.92 0 00-4-3.9m-21.3 15.7h-9v-8.1h9a3.83 3.83 0 013.9 4.1 3.75 3.75 0 01-3.9 4m0-15.4h-12.9a3.62 3.62 0 00-3.8 3.8v24.7a3.7 3.7 0 003.9 3.8 3.62 3.62 0 003.8-3.8v-5.8h9c7 0 11.4-4.9 11.4-11.4s-4.49-11.3-11.39-11.3m-48 25c-5.1 0-8.7-3.8-8.7-9a8.7 8.7 0 1117.4 0c0 5.2-3.4 9-8.7 9m0-25.3a16 16 0 00-16.4 16.3 16.4 16.4 0 0032.8-.1c0-9.3-7.1-16.2-16.4-16.2m-37.1 24.9h-6.6V23.4h6.6c5.3 0 8.9 3.2 8.9 8.5s-3.5 8.7-8.9 8.7m0-24.6h-10.5a3.87 3.87 0 00-3.9 4v24.2a3.7 3.7 0 003.9 3.8h10.5c9.4 0 16.5-6.5 16.5-16.1 0-9.6-7.1-15.9-16.5-15.9m-35.9 25c-5.1 0-8.7-3.8-8.7-9a8.7 8.7 0 1117.4 0c0 5.2-3.4 9-8.7 9m0-25.3a16 16 0 00-16.4 16.3 16.4 16.4 0 0032.8-.1c0-9.3-7.1-16.2-16.4-16.2m-37 24.9h-6.6V23.4h6.6c5.3 0 8.9 3.2 8.9 8.5s-3.6 8.7-8.9 8.7m0-24.6h-10.51a3.87 3.87 0 00-3.9 4v24.2a3.7 3.7 0 003.9 3.8h10.5c9.4 0 16.5-6.5 16.5-16.1 0-9.6-7.19-15.9-16.49-15.9"/><path d="M28.5622 0c18.54 0 32.8 12.79 32.8 31.75S47.1022 64 28.5422 64h-20.84a7.36 7.36 0 01-7.69-7V8a7.58 7.58 0 017.18-8z" fill="#ff6900"/><path d="M49.9022 24.89c-.1.79-1 .79-1.44.1-1.3-2.19-3-2.6-5.69-2.8-2-.1-4.33.1-6.58.1h-.1l-.16-.09a.45.45 0 01-.16-.3c.4-1.89 2-5.37 3.69-5.69.79-.1 2.6-.3 3.59-.3 4.58-.01 7.05 5.29 6.85 8.98zM23.9222 43a31.91 31.91 0 0010.38 1 27.61 27.61 0 0012.87-4.2c-1.44 3.81-7.17 6.2-12.57 6.77 0 .3-.1.49-.1.79a21.52 21.52 0 009.77-2.8c-1 3.69-6 5.2-10.58 5.5a5.9 5.9 0 01-.4.79 22.92 22.92 0 006.71-.85c-2.11 3.9-11.08 6.6-18.66 3a24 24 0 002.6-10zm25.08-26.59a8.76 8.76 0 00-6.29-2.41c-3 0-5.48.79-9.18.89-2.5.1-4.79-5.37-7.78-6.09a3.88 3.88 0 00-6.07-1.8c-1.69-1-4.33-.49-4.33 1.44-1.89-.59-4.33.4-3.29 3-4.69.1-5.48 4.33-2.4 4.69-4.17 2.25-2.27 6.25 1.13 5.51.61 6 3.29 13.78-1.1 15.69a11.75 11.75 0 01-6.29-.2l-3.4-.94v3.09a30.8 30.8 0 008.66 1.15c5.77-.59 6.09-5.37 5.77-9.58-.32-4.21-1.68-8.85-1.19-12.28l-.2-.2c-2.09 2.19-3.49 1.6-3.69.89-.23-1.36 2.21-3.15 3.65-3.75 0-.1.1-.2.1-.3-1.3.2-2.89 0-3-.89-.11-.89 2.19-2.19 5.2-1.89.1 0 .1-.1.2-.1l-.58-.33a1 1 0 01-.66-1.44 2.14 2.14 0 011.74-.65 6.68 6.68 0 012.73.53c.1 0 .1-.1.2-.1a3.56 3.56 0 01-.59-.59.76.76 0 010-1 2.08 2.08 0 012.4.4l.49.49h.16l.14-.09a1.08 1.08 0 01-.3-.66.59.59 0 01.29-.79h.1a1.21 1.21 0 011.2.49 4.88 4.88 0 01.59 1.24 8.28 8.28 0 00-6.12 3.12 9.54 9.54 0 00-1.2 8.2 58.55 58.55 0 002.89 9v.1c2.42 6.88 7 23.86-15.21 32.86a9.14 9.14 0 003.73.89h2.29a28.86 28.86 0 009.87-8.18c10.18 4.44 19.43 2.18 23.44-5.24a9.77 9.77 0 004.53-7.26 7.49 7.49 0 001.44-6.47c-.1-.4-.49-.4-1.1-.1-8.28 5-15.56 5.77-24.24 3.2a65.71 65.71 0 00-1.2-8.1c-.2-3.49.89-5.2 7.22-3.1a19.79 19.79 0 017.58 4c.66.49 1.59 1.1 2.09.66a1.92 1.92 0 00.4-1.44 16.71 16.71 0 00-1.82-6.26 52.1 52.1 0 015.69 0 3.22 3.22 0 012.89 2.19c.66 2 4.59 1.44 4.89-.2.59-3.49.79-8.1-2.6-11.29h.13zm-44.3 30a36.71 36.71 0 00-4.69 0v2.09c2.68-.59 4.33-.89 4.33-.89z"/><path d="M29.6522 24.56c-3.49-.79-7.36-1.8-9.38-4.79 0-.1-.1-.1-.2-.1a.89.89 0 00.1.49l-.3.1a2 2 0 01-.1-2.4 2.57 2.57 0 013.29-.3l-.1.3a2.19 2.19 0 00-1.44.1.53.53 0 00-.2.79c1.68 3.25 6.68 3.91 12.56 3.41a.71.71 0 00.76-.49 11.33 11.33 0 012.79-5.3 15.61 15.61 0 01-2.89.2c-3 .2-4.79-.2-5.3-.59l.1-.3a.71.71 0 00.66 0 .38.38 0 00-.1-.3c-.56-.53-3.16-3.22-3.16-3.22-.3-2.37-3.65-2.37-4.89-.17l-.4-.1a3.36 3.36 0 01.49-1.2 6.28 6.28 0 00-4.62 5.37c-1.19 10.19 14.27 7.79 18.68 11.94.1.1.3.4.4.2.1-.2-1.79-2.6-6.78-3.69zm-5.37-12.3a2.41 2.41 0 012.29 1.6c.51 1.1.4 2.19-.3 2.5a2.24 2.24 0 01-2.27-1.58c-.1-.2-.1-.3-.2-.49h.1a.66.66 0 00.69.17.75.75 0 000-1 .92.92 0 00-.79-.59l-.1-.1a1.34 1.34 0 01.59-.49m22.91 27.51a27.61 27.61 0 01-12.87 4.21 35.24 35.24 0 01-10.33-1 15.28 15.28 0 01-.3 3 41.46 41.46 0 008.88 1.1 14.91 14.91 0 01-4.33 7.59c5.3.19 10.22-1.9 11.75-4.69a20.36 20.36 0 01-6.7.89c.1-.3.3-.49.4-.79 4.59-.2 9.58-1.7 10.58-5.5a21.52 21.52 0 01-9.77 2.8c0-.3.1-.49.1-.79 5.35-.66 11.07-3 12.57-6.8" fill="#fff"/></svg>